<mxfile host="app.diagrams.net" modified="2024-04-04T16:48:19.206Z" agent="Mozilla/5.0 (Windows NT 10.0; Win64; x64) AppleWebKit/537.36 (KHTML, like Gecko) Chrome/123.0.0.0 Safari/537.36 Edg/123.0.0.0" version="24.2.2" etag="aAgaz90mT-dBw374oTlz" type="github">
  <diagram name="第 1 页" id="op6nbO_cEy6gtKYaOXhg">
    <mxGraphModel>
      <root>
        <mxCell id="0" />
        <mxCell id="1" parent="0" />
      </root>
    </mxGraphModel>
  </diagram>
</mxfile>
